<svg xmlns="http://www.w3.org/2000/svg" viewBox="0.0 0.0 192.0 192.0" width="165" height="165"><path fill="#444" d="M1 81V1h192v192H1V81m75.85-39.057c-2.519 13.234-5.072 26.462-7.549 39.704-3.988 21.315-7.927 42.64-11.884 63.96-1.923 10.361-4.285 12.634-15.103 14.522-4.131.72-6.943 4.835-4.988 8.549 1.929 3.663 4.311 7.72 9.643 8.061.354 1.116.708 2.232 1.72 3.843 16.173.107 32.346.223 48.52.286.585.003 1.173-.515 2.32-1.309.391-2.056.784-4.112 1.24-6.503-3.701.151-5.642-1.02-6.087-4.913-.224-1.963-2.332-4.827-4.11-5.294-5.92-1.552-4.47-5.236-3.678-9.187 2.532-12.63 4.924-25.288 7.506-38.64 7.189 0 14.05.547 20.797-.105 18.174-1.754 32.238-10.596 40.53-26.925 8.305-16.35 8.924-32.367-3.071-48.149-7.512-9.883-16.338-16.462-28.516-16.915-17.965-.668-35.97-.345-53.956-.257-4.789.023-6.765 4.134-3.826 7.93 1.837 2.374 4.44 4.155 6.7 6.203l-.374.558c1.411 1.269 2.822 2.538 4.166 4.581z" /><path fill="#CDDBE9" d="M48.032 180.086c-.355-1.115-.709-2.231-.756-3.845.416-1.549.524-2.6.657-4.045.048-.659.072-.92.529-1.187 2.46-.003 4.487-.002 6.727.206 1.084.068 1.955-.07 3.197-.226 8.545-1.475 8.394-8.525 9.545-14.303 5.387-27.03 10.546-54.105 15.71-81.179 1.586-8.31 3.087-16.642 4.32-25.01.654-4.446-1.661-7.144-5.887-8.028-1.344 3.381-2.572 6.472-3.926 9.161.196-2.611.8-4.832.723-7.028-.041-1.166-1.264-2.29-1.954-3.434l-4.233-3.806.373-.558c-2.259-2.048-4.862-3.83-6.7-6.204-2.938-3.795-.962-7.906 3.827-7.93 17.987-.087 35.991-.41 53.956.258 12.178.453 21.004 7.032 28.516 16.915 11.995 15.782 11.376 31.799 3.072 48.15-8.293 16.328-22.357 25.17-40.53 26.924-6.747.652-13.61.106-20.798.106-2.582 13.35-4.974 26.009-7.506 38.639-.792 3.95-2.242 7.635 3.678 9.187 1.778.467 3.886 3.33 4.11 5.294.445 3.892 2.386 5.064 6.087 4.913-.456 2.391-.849 4.447-1.985 6.726-17.414.25-34.083.277-50.752.304m70.605-146.523 26.79 1.918c-8.857-7.487-18.254-9.75-29.302-10.279-5.727.056-11.453.113-18.103.058-8.01.24-16.021.48-24.827.698l-4.588.345-.747 1.448c2.052 1.736 4.103 3.471 6.906 5.575 9.075.208 18.15.416 28.055.533 5.05-.266 10.1-.532 15.816-.296m7.178 45.67c4.873-9.806 6.827-20.076 5-30.972-.555-3.316-2.235-5.788-5.676-5.961-5.526-.278-11.076-.075-16.94-.075L98.12 95.811c12.601-.25 21.464-5.498 27.696-16.577m7.838-29.556c1.317 10.01-.505 19.631-4.496 28.712-4.728 10.757-12.162 18.534-24.773 19.717-2.062.194-4.336.977-5.943 2.223-1.192.924-1.847 3.016-1.94 4.633-.034.61 2.19 1.934 3.375 1.923 3.796-.037 7.758.04 11.342-1.005 6.063-1.768 12.406-2.583 17.402-7.637 9.408-9.518 11.996-21.306 12.126-33.766.066-6.403-1.159-13.148-7.516-18.077.11 1.312.162 1.943.423 3.277M87.867 164.609c-.82.68-2.448 1.613-2.327 2 .863 2.762 2.415 4.824 6.747 3.802-1.61-2.256-2.731-3.825-4.42-5.802z" /><path fill="#6F6F70" d="M76.884 41.556c.723.756 1.946 1.88 1.987 3.046.077 2.196-.527 4.417-.859 7.342-.038 1.167-.065 1.618-.348 2.29-.293 1.082-.328 1.946-.495 3.124-.158.765-.185 1.215-.483 1.93-1.607 6.94-3.04 13.597-4.253 20.294-1.474 8.135-2.763 16.304-4.266 24.771-.169.763-.204 1.213-.503 1.905-.347 1.412-.429 2.58-.673 4.115-.314 1.94-.466 3.514-.774 5.306-.187.569-.218.92-.432 1.59-.253 1.279-.32 2.241-.539 3.422-.175.568-.2.917-.445 1.601-1.956 9.941-3.693 19.547-5.601 29.366-.222.567-.274.922-.54 1.515-.549 1.238-.882 2.239-1.44 3.414-.353.525-.48.877-.895 1.384-2.929 1.663-5.569 3.17-8.478 4.506-2.981.486-6.74-.54-7.338 3.687-.385 2.72 3.725 6.105 7.4 6.427-.109 1.05-.217 2.101-.626 3.281-5.646.527-8.028-3.531-9.957-7.194-1.955-3.714.857-7.829 4.988-8.55 10.818-1.887 13.18-4.16 15.103-14.52 3.957-21.321 7.896-42.646 11.884-63.961 2.477-13.242 5.03-26.47 7.583-40.091z" /><path fill="#1C150C" d="M48.36 180.334c16.34-.275 33.01-.303 50.144-.293-.122.312-.71.83-1.296.827-16.173-.063-32.346-.179-48.848-.534z" /><path fill="#444" d="M125.64 79.56c-6.057 10.753-14.92 16.001-27.52 16.251l10.08-53.586c5.863 0 11.413-.203 16.94.075 3.44.173 5.12 2.645 5.676 5.961 1.826 10.896-.128 21.166-5.177 31.299z" /><path fill="#FCFDFD" d="M77.92 54.014c.027-.452.054-.903.217-1.668 1.365-3.405 2.593-6.496 3.937-9.877 4.226.884 6.54 3.582 5.886 8.028-1.232 8.368-2.733 16.7-4.318 25.01-5.165 27.074-10.324 54.15-15.71 81.18-1.152 5.777-1.001 12.827-9.926 14.286-1.51.014-2.27.025-3.031.036-2.026-.002-4.053-.003-6.804-.185-4.519-3.183-1.465-5.61-.054-8.176 2.64-1.507 5.28-3.014 8.52-4.775.671-.656.74-1.059.809-1.46.332-1.001.665-2.002 1.483-3.395.47-.786.456-1.18.441-1.572 1.738-9.607 3.475-19.213 5.677-29.325.426-.886.387-1.267.349-1.648.068-.963.136-1.925.642-3.372.404-.869.37-1.254.335-1.64.152-1.574.304-3.148.93-5.166.526-1.722.575-3 .625-4.279.035-.45.07-.9.569-1.79.745-.84 1.2-1.203 1.286-1.64 2.662-13.458 5.316-26.918 7.864-40.398.185-.977-.44-2.106-.69-3.165.027-.45.054-.9.497-1.74.434-1.348.45-2.309.466-3.27zM133.549 49.327c-.157-.983-.21-1.614-.32-2.926 6.358 4.929 7.583 11.674 7.517 18.077-.13 12.46-2.718 24.248-12.126 33.766-4.996 5.054-11.339 5.87-17.402 7.637-3.584 1.045-7.546.968-11.342 1.005-1.185.011-3.41-1.312-3.374-1.923.092-1.617.747-3.71 1.939-4.633 1.607-1.246 3.881-2.03 5.943-2.223 12.611-1.183 20.045-8.96 24.773-19.717 3.991-9.08 5.813-18.701 4.392-29.063z" /><path fill="#FDFDFD" d="M101.992 33.95c-9.075-.208-18.15-.416-27.606-1.242-.386-2.654-.39-4.691-.396-6.728 8.01-.24 16.022-.48 24.53-.33 1.488 3.027 2.48 5.664 3.472 8.3zM117.06 25.372c10.113.358 19.51 2.622 28.368 10.11-9.878-.708-18.335-1.313-27.18-2.562-.654-2.945-.92-5.246-1.187-7.548z" /><path fill="#F8F8F8" d="M116.593 25.287c.734 2.387 1 4.688 1.323 7.382-4.995.658-10.045.924-15.51 1.236-1.406-2.591-2.398-5.228-3.425-8.2 5.69-.39 11.417-.447 17.612-.418z" /><path fill="#E6E6E6" d="M47.847 162.477c-1.14 2.736-4.195 5.164-.11 8.35.268.448.244.71.196 1.369-3.699.073-7.81-3.311-7.424-6.032.598-4.227 4.357-3.201 7.338-3.687z" /><path fill="#F1F2F2" d="M88.151 164.813c1.405 1.773 2.525 3.342 4.136 5.598-4.332 1.022-5.884-1.04-6.747-3.802-.12-.387 1.508-1.32 2.611-1.796z" /><path fill="#F8F8F8" d="M73.592 25.97c.403 2.047.408 4.084.418 6.554-2.047-1.302-4.098-3.037-6.15-4.773l.747-1.448c1.53-.115 3.058-.23 4.985-.334z" /><path fill="#E6E6E6" d="M55.189 171.215c.546-.217 1.306-.228 2.447-.223-.492.153-1.363.291-2.447.223z" /><path fill="#CDDBE9" d="M76.686 59.288c.52.794 1.146 1.923.961 2.9-2.548 13.48-5.202 26.94-7.864 40.399-.087.436-.54.8-1.153 1.325a490.398 490.398 0 0 1 3.803-24.33c1.214-6.697 2.646-13.354 4.253-20.294zM67.664 106.258c.214 1.036.165 2.315-.198 3.67-.23-1.09-.149-2.258.198-3.67zM77.664 54.233c.24.741.224 1.702-.078 2.736-.25-.789-.215-1.653.078-2.736zM66.217 115.679c.19.168.225.553.005 1.106-.223-.185-.192-.537-.005-1.106zM65.246 120.691c.188.163.227.544.02 1.096-.22-.179-.195-.528-.02-1.096zM59.2 151.658c.185.18.2.574-.055 1.122-.219-.2-.167-.555.055-1.122zM57.22 156.587c.157.227.088.63-.293 1.13-.187-.253-.06-.605.293-1.13z" /></svg>